<svg xmlns="http://www.w3.org/2000/svg" width="960" height="240" viewBox="0 0 960 240" role="img" aria-hidden="true">
  <defs>
    <linearGradient id="bg" x1="0" y1="0" x2="1" y2="1">
      <stop offset="0" stop-color="#101828"/>
      <stop offset="0.52" stop-color="#143D59"/>
      <stop offset="1" stop-color="#1F7A8C"/>
    </linearGradient>
    <linearGradient id="line" x1="120" y1="0" x2="840" y2="0" gradientUnits="userSpaceOnUse">
      <stop offset="0" stop-color="#7DD3FC"/>
      <stop offset="0.5" stop-color="#F8FAFC"/>
      <stop offset="1" stop-color="#22C55E"/>
    </linearGradient>
    <filter id="softShadow" x="-20%" y="-20%" width="140%" height="140%">
      <feDropShadow dx="0" dy="14" stdDeviation="18" flood-color="#020617" flood-opacity="0.35"/>
    </filter>
  </defs>

  <rect width="960" height="240" rx="28" fill="url(#bg)"/>
  <path d="M0 176 C120 132 209 214 337 166 C460 120 508 67 642 91 C777 115 829 168 960 115 L960 240 L0 240 Z" fill="#FFFFFF" opacity="0.08"/>
  <path d="M0 74 C128 26 232 78 344 55 C474 28 566 9 672 58 C778 106 844 103 960 58" fill="none" stroke="#FFFFFF" stroke-width="2" opacity="0.14"/>

  <g filter="url(#softShadow)">
    <circle cx="210" cy="120" r="54" fill="#0F172A" stroke="#7DD3FC" stroke-width="4"/>
    <path d="M184 120 H236" stroke="#7DD3FC" stroke-width="8" stroke-linecap="round"/>
    <path d="M210 94 V146" stroke="#7DD3FC" stroke-width="8" stroke-linecap="round"/>
  </g>

  <path d="M292 120 H668" stroke="url(#line)" stroke-width="10" stroke-linecap="round"/>
  <path d="M620 84 L668 120 L620 156" fill="none" stroke="#F8FAFC" stroke-width="10" stroke-linecap="round" stroke-linejoin="round"/>
  <path d="M340 84 L292 120 L340 156" fill="none" stroke="#F8FAFC" stroke-width="10" stroke-linecap="round" stroke-linejoin="round" opacity="0.72"/>

  <g filter="url(#softShadow)">
    <rect x="696" y="66" width="108" height="108" rx="24" fill="#0F172A" stroke="#22C55E" stroke-width="4"/>
    <path d="M730 106 H770 C780 106 788 114 788 124 C788 134 780 142 770 142 H730 C720 142 712 134 712 124 C712 114 720 106 730 106Z" fill="none" stroke="#22C55E" stroke-width="7"/>
    <path d="M750 88 V106" stroke="#22C55E" stroke-width="7" stroke-linecap="round"/>
    <path d="M750 142 V160" stroke="#22C55E" stroke-width="7" stroke-linecap="round"/>
  </g>

  <circle cx="118" cy="54" r="8" fill="#7DD3FC" opacity="0.7"/>
  <circle cx="840" cy="188" r="10" fill="#22C55E" opacity="0.7"/>
  <circle cx="610" cy="198" r="5" fill="#F8FAFC" opacity="0.5"/>
</svg>
